<svg width="918" height="918" viewBox="0 0 918 918" fill="none" xmlns="http://www.w3.org/2000/svg">
<path d="M652.434 84.0143C674.547 83.7757 696.594 86.529 717.997 92.2022C733.734 96.2289 749.12 101.568 764 108.165L739.313 223.14C727.525 217.231 715.063 212.839 702.214 210.067C690.049 207.334 677.638 205.904 665.182 205.801C651.924 205.29 638.708 207.634 626.397 212.682C616.584 216.926 608.061 223.767 601.709 232.498C595.335 241.588 590.921 251.953 588.758 262.91C586.111 275.294 584.821 287.94 584.913 300.616V348.436H743.899V445.59H585.048V834H458.103V298.483C458.103 232.842 474.426 180.687 507.073 142.018C539.72 103.349 588.174 84.0143 652.434 84.0143Z" fill="#1A1A1A"/>
<path d="M382.07 588.818L332.805 834H192.649L241.914 588.818L193.618 348.427H333.692L382.07 588.818Z" fill="#1A1A1A"/>
<path d="M295.007 156.205L321.14 286.057H181.088L155 156.205H295.007Z" fill="#1A1A1A"/>
</svg>
